<mxfile host="Electron" agent="Mozilla/5.0 (Windows NT 10.0; Win64; x64) AppleWebKit/537.36 (KHTML, like Gecko) draw.io/24.7.17 Chrome/128.0.6613.36 Electron/32.0.1 Safari/537.36" version="24.7.17">
  <diagram name="Page-1" id="qrrY8P8bsxcQaD2TTXGM">
    <mxGraphModel dx="1120" dy="572" grid="1" gridSize="10" guides="1" tooltips="1" connect="1" arrows="1" fold="1" page="1" pageScale="1" pageWidth="850" pageHeight="1100" math="0" shadow="0">
      <root>
        <mxCell id="0" />
        <mxCell id="1" parent="0" />
        <mxCell id="FciqL5AhU0nQ3PfoJTI6-1" value="Admin&lt;div&gt;&lt;br&gt;&lt;/div&gt;" style="shape=umlActor;verticalLabelPosition=bottom;verticalAlign=top;html=1;" parent="1" vertex="1">
          <mxGeometry x="120" y="680" width="30" height="60" as="geometry" />
        </mxCell>
        <mxCell id="FciqL5AhU0nQ3PfoJTI6-2" value="" style="html=1;whiteSpace=wrap;" parent="1" vertex="1">
          <mxGeometry x="230" y="500" width="340" height="450" as="geometry" />
        </mxCell>
        <mxCell id="FciqL5AhU0nQ3PfoJTI6-3" value="User" style="shape=umlActor;verticalLabelPosition=bottom;verticalAlign=top;html=1;" parent="1" vertex="1">
          <mxGeometry x="650" y="680" width="30" height="60" as="geometry" />
        </mxCell>
        <mxCell id="FciqL5AhU0nQ3PfoJTI6-4" value="Add Products" style="ellipse;whiteSpace=wrap;html=1;" parent="1" vertex="1">
          <mxGeometry x="250" y="518" width="100" height="65" as="geometry" />
        </mxCell>
        <mxCell id="FciqL5AhU0nQ3PfoJTI6-5" value="View all orders" style="ellipse;whiteSpace=wrap;html=1;" parent="1" vertex="1">
          <mxGeometry x="250" y="608" width="100" height="65" as="geometry" />
        </mxCell>
        <mxCell id="FciqL5AhU0nQ3PfoJTI6-6" value="List all orders" style="ellipse;whiteSpace=wrap;html=1;" parent="1" vertex="1">
          <mxGeometry x="250" y="690" width="100" height="65" as="geometry" />
        </mxCell>
        <mxCell id="FciqL5AhU0nQ3PfoJTI6-7" value="View all Users" style="ellipse;whiteSpace=wrap;html=1;" parent="1" vertex="1">
          <mxGeometry x="250" y="780" width="100" height="65" as="geometry" />
        </mxCell>
        <mxCell id="FciqL5AhU0nQ3PfoJTI6-8" value="View one user" style="ellipse;whiteSpace=wrap;html=1;" parent="1" vertex="1">
          <mxGeometry x="250" y="880" width="100" height="65" as="geometry" />
        </mxCell>
        <mxCell id="FciqL5AhU0nQ3PfoJTI6-9" value="Change Username,&lt;div&gt;email, etc&lt;/div&gt;" style="ellipse;whiteSpace=wrap;html=1;" parent="1" vertex="1">
          <mxGeometry x="440" y="860" width="100" height="65" as="geometry" />
        </mxCell>
        <mxCell id="FciqL5AhU0nQ3PfoJTI6-10" value="View Report" style="ellipse;whiteSpace=wrap;html=1;" parent="1" vertex="1">
          <mxGeometry x="440" y="780" width="100" height="65" as="geometry" />
        </mxCell>
        <mxCell id="FciqL5AhU0nQ3PfoJTI6-11" value="Cancel order" style="ellipse;whiteSpace=wrap;html=1;" parent="1" vertex="1">
          <mxGeometry x="440" y="690" width="100" height="65" as="geometry" />
        </mxCell>
        <mxCell id="FciqL5AhU0nQ3PfoJTI6-12" value="Order product" style="ellipse;whiteSpace=wrap;html=1;" parent="1" vertex="1">
          <mxGeometry x="440" y="608" width="100" height="65" as="geometry" />
        </mxCell>
        <mxCell id="FciqL5AhU0nQ3PfoJTI6-13" value="View all products" style="ellipse;whiteSpace=wrap;html=1;" parent="1" vertex="1">
          <mxGeometry x="440" y="518" width="100" height="65" as="geometry" />
        </mxCell>
        <mxCell id="FciqL5AhU0nQ3PfoJTI6-14" value="" style="endArrow=open;endFill=1;endSize=12;html=1;rounded=0;exitX=1;exitY=0.3333333333333333;exitDx=0;exitDy=0;exitPerimeter=0;entryX=0;entryY=0.5;entryDx=0;entryDy=0;" parent="1" source="FciqL5AhU0nQ3PfoJTI6-1" target="FciqL5AhU0nQ3PfoJTI6-4" edge="1">
          <mxGeometry width="160" relative="1" as="geometry">
            <mxPoint x="340" y="700" as="sourcePoint" />
            <mxPoint x="500" y="700" as="targetPoint" />
          </mxGeometry>
        </mxCell>
        <mxCell id="FciqL5AhU0nQ3PfoJTI6-15" value="" style="endArrow=open;endFill=1;endSize=12;html=1;rounded=0;entryX=0;entryY=0.5;entryDx=0;entryDy=0;" parent="1" target="FciqL5AhU0nQ3PfoJTI6-6" edge="1">
          <mxGeometry width="160" relative="1" as="geometry">
            <mxPoint x="150" y="700" as="sourcePoint" />
            <mxPoint x="260" y="561" as="targetPoint" />
          </mxGeometry>
        </mxCell>
        <mxCell id="FciqL5AhU0nQ3PfoJTI6-16" value="" style="endArrow=open;endFill=1;endSize=12;html=1;rounded=0;entryX=0;entryY=0.5;entryDx=0;entryDy=0;" parent="1" target="FciqL5AhU0nQ3PfoJTI6-7" edge="1">
          <mxGeometry width="160" relative="1" as="geometry">
            <mxPoint x="150" y="700" as="sourcePoint" />
            <mxPoint x="270" y="571" as="targetPoint" />
          </mxGeometry>
        </mxCell>
        <mxCell id="FciqL5AhU0nQ3PfoJTI6-17" value="" style="endArrow=open;endFill=1;endSize=12;html=1;rounded=0;exitX=1;exitY=0.3333333333333333;exitDx=0;exitDy=0;exitPerimeter=0;entryX=0;entryY=0.5;entryDx=0;entryDy=0;" parent="1" source="FciqL5AhU0nQ3PfoJTI6-1" target="FciqL5AhU0nQ3PfoJTI6-5" edge="1">
          <mxGeometry width="160" relative="1" as="geometry">
            <mxPoint x="190" y="740" as="sourcePoint" />
            <mxPoint x="290" y="591" as="targetPoint" />
          </mxGeometry>
        </mxCell>
        <mxCell id="FciqL5AhU0nQ3PfoJTI6-18" value="" style="endArrow=open;endFill=1;endSize=12;html=1;rounded=0;entryX=1;entryY=0.5;entryDx=0;entryDy=0;" parent="1" target="FciqL5AhU0nQ3PfoJTI6-13" edge="1">
          <mxGeometry width="160" relative="1" as="geometry">
            <mxPoint x="650" y="700" as="sourcePoint" />
            <mxPoint x="770" y="476" as="targetPoint" />
          </mxGeometry>
        </mxCell>
        <mxCell id="FciqL5AhU0nQ3PfoJTI6-19" value="" style="endArrow=open;endFill=1;endSize=12;html=1;rounded=0;entryX=1;entryY=0.5;entryDx=0;entryDy=0;" parent="1" target="FciqL5AhU0nQ3PfoJTI6-12" edge="1">
          <mxGeometry width="160" relative="1" as="geometry">
            <mxPoint x="650" y="700" as="sourcePoint" />
            <mxPoint x="780" y="486" as="targetPoint" />
          </mxGeometry>
        </mxCell>
        <mxCell id="FciqL5AhU0nQ3PfoJTI6-20" value="" style="endArrow=open;endFill=1;endSize=12;html=1;rounded=0;exitX=0;exitY=0.3333333333333333;exitDx=0;exitDy=0;exitPerimeter=0;entryX=1;entryY=0.5;entryDx=0;entryDy=0;" parent="1" source="FciqL5AhU0nQ3PfoJTI6-3" target="FciqL5AhU0nQ3PfoJTI6-11" edge="1">
          <mxGeometry width="160" relative="1" as="geometry">
            <mxPoint x="690" y="645" as="sourcePoint" />
            <mxPoint x="790" y="496" as="targetPoint" />
          </mxGeometry>
        </mxCell>
        <mxCell id="FciqL5AhU0nQ3PfoJTI6-21" value="" style="endArrow=open;endFill=1;endSize=12;html=1;rounded=0;entryX=1;entryY=0.5;entryDx=0;entryDy=0;" parent="1" target="FciqL5AhU0nQ3PfoJTI6-10" edge="1">
          <mxGeometry width="160" relative="1" as="geometry">
            <mxPoint x="650" y="700" as="sourcePoint" />
            <mxPoint x="800" y="506" as="targetPoint" />
          </mxGeometry>
        </mxCell>
        <mxCell id="FciqL5AhU0nQ3PfoJTI6-22" value="" style="endArrow=open;endFill=1;endSize=12;html=1;rounded=0;exitX=0;exitY=0.3333333333333333;exitDx=0;exitDy=0;exitPerimeter=0;entryX=1;entryY=0.5;entryDx=0;entryDy=0;" parent="1" source="FciqL5AhU0nQ3PfoJTI6-3" target="FciqL5AhU0nQ3PfoJTI6-9" edge="1">
          <mxGeometry width="160" relative="1" as="geometry">
            <mxPoint x="710" y="665" as="sourcePoint" />
            <mxPoint x="810" y="516" as="targetPoint" />
          </mxGeometry>
        </mxCell>
        <mxCell id="FciqL5AhU0nQ3PfoJTI6-23" value="Extends" style="endArrow=block;endSize=16;endFill=0;html=1;rounded=0;exitX=0.5;exitY=1;exitDx=0;exitDy=0;entryX=0.5;entryY=0;entryDx=0;entryDy=0;" parent="1" source="FciqL5AhU0nQ3PfoJTI6-7" target="FciqL5AhU0nQ3PfoJTI6-8" edge="1">
          <mxGeometry width="160" relative="1" as="geometry">
            <mxPoint x="340" y="900" as="sourcePoint" />
            <mxPoint x="500" y="900" as="targetPoint" />
          </mxGeometry>
        </mxCell>
        <mxCell id="FciqL5AhU0nQ3PfoJTI6-24" value="Use" style="endArrow=open;endSize=12;dashed=1;html=1;rounded=0;exitX=1;exitY=0.5;exitDx=0;exitDy=0;entryX=0;entryY=0.5;entryDx=0;entryDy=0;" parent="1" source="FciqL5AhU0nQ3PfoJTI6-4" target="FciqL5AhU0nQ3PfoJTI6-13" edge="1">
          <mxGeometry width="160" relative="1" as="geometry">
            <mxPoint x="340" y="700" as="sourcePoint" />
            <mxPoint x="500" y="700" as="targetPoint" />
          </mxGeometry>
        </mxCell>
        <mxCell id="FciqL5AhU0nQ3PfoJTI6-27" value="Use" style="endArrow=open;endSize=12;dashed=1;html=1;rounded=0;entryX=1;entryY=0.5;entryDx=0;entryDy=0;exitX=0;exitY=0.5;exitDx=0;exitDy=0;" parent="1" source="FciqL5AhU0nQ3PfoJTI6-12" target="FciqL5AhU0nQ3PfoJTI6-6" edge="1">
          <mxGeometry width="160" relative="1" as="geometry">
            <mxPoint x="360" y="561" as="sourcePoint" />
            <mxPoint x="450" y="823" as="targetPoint" />
          </mxGeometry>
        </mxCell>
        <mxCell id="FciqL5AhU0nQ3PfoJTI6-28" value="&lt;font style=&quot;font-size: 18px;&quot;&gt;Shop Swiftly&lt;/font&gt;" style="text;html=1;align=center;verticalAlign=middle;resizable=0;points=[];autosize=1;strokeColor=none;fillColor=none;" parent="1" vertex="1">
          <mxGeometry x="330" y="490" width="120" height="40" as="geometry" />
        </mxCell>
      </root>
    </mxGraphModel>
  </diagram>
</mxfile>
